# xmcd
#
# Track frame offsets: 
#        150
#        18228
#        38184
#        66528
#        86375
#        104026
#        122697
#        142881
#
# Disc length: 2185 seconds
#
# Revision: 0
# Processed by: cddbd v1.5.2PL0 Copyright (c) Steve Scherf et al.
# Submitted via: ExactAudioCopyFreeDBPlugin 1.0
#
DISCID=69088708
DTITLE=Bernard Fines - Muito Merci [CD1]
DYEAR=2013
DGENRE=World
TTITLE0=Papa Papa
TTITLE1=Sous mes mots
TTITLE2=Nunca Mais
TTITLE3=White Soul
TTITLE4=Samba de Inverno
TTITLE5=Ma perle noire
TTITLE6=Voici le printemps
TTITLE7=Começar de novo
EXTD=
EXTT0=
EXTT1=
EXTT2=
EXTT3=
EXTT4=
EXTT5=
EXTT6=
EXTT7=
PLAYORDER=
